<svg width="429.00000000000006" height="81.07198335802232" viewBox="0 0 370.00000000000006 69.92222340901692" class="looka-1j8o68f"><defs id="SvgjsDefs1011"></defs><g id="SvgjsG1012" featurekey="HdFLvg-0" transform="matrix(0.7777777777777778,0,0,0.7777777777777778,-3.6298887464735246,-6.222222222222222)" fill="#005d6c"><path xmlns="http://www.w3.org/2000/svg" d="M85.178,36.368l-4.994-2.997c-1.498-5.993-4.195-9.689-7.092-11.787c-4.095-3.596-9.489-2.997-9.489-2.997  c-0.999,0-9.989,1.798-13.185,10.089c-2.098,3.896-3.596,8.79-4.395,14.284c-0.4,2.597-0.599,5.294-0.599,8.091  c-0.2,0.1-0.4,0.1-0.599,0.1c-0.799,0-1.498-0.699-1.498-1.498c0-2.198,0.1-4.295,0.3-6.293l-8.291,1.398l-4.095-6.593  c-0.2-0.3-0.499-0.499-0.499-0.499l-7.991-4.395l24.273-4.095c0.3-0.999,0.999-2.198,0.999-2.198l-15.782,2.797  c1.299-9.889,5.194-17.88,9.989-21.176C44.727,8.199,47.224,8,49.722,8c0.799,0,1.498,0,2.297,0.1  c3.396,1.398,6.193,4.895,7.891,9.29c0,0,1.498-0.799,2.897-0.799c-1.199-3.496-2.697-5.794-4.395-7.691  c20.672,3.994,36.255,22.274,36.255,44.15c0,9.989-3.296,19.378-8.99,26.97V37.267C85.677,36.668,85.178,36.368,85.178,36.368z   M19.551,31.973L19.551,31.973l9.489-1.698c0.899-8.491,3.596-15.583,7.292-20.377C18.052,15.591,4.667,32.673,4.667,52.85  c0,12.786,5.394,24.373,13.984,32.564V32.972C18.552,32.073,19.551,31.973,19.551,31.973z M19.85,86.413L19.85,86.413  c3.696,3.296,7.891,5.993,12.486,7.891l-2.797-8.79L19.85,86.413z M49.717,97.9c6.892,0,13.485-1.598,19.378-4.395L45.222,97.6  C46.72,97.8,48.219,97.9,49.717,97.9z M55.91,25.68l5.594-0.999c-0.1-0.999-0.2-1.898-0.4-2.797  C59.306,22.484,57.508,23.782,55.91,25.68z M80.882,36.868l0.999-0.2l-1.099-0.699C80.782,35.969,80.782,35.969,80.882,36.868z   M54.112,27.978c-2.297,3.696-4.095,8.69-5.094,14.484l19.578-3.396V25.481L54.112,27.978z M31.238,84.415L31.238,84.415  l2.497,7.691V46.158l-2.497-3.996V84.415z M70.893,23.782c-1.898-1.398-4.195-2.098-6.693-2.198c0.1,0.799,0.3,1.698,0.4,2.597  l4.994-0.899c0,0,0.599-0.1,1.099,0.499l2.697,5.394l1.099,0.699c0.3,0.899,0.599,1.798,0.799,2.897l-1.698-0.999v6.493l2.597-0.499  c0.2,1.598,0.2,3.396,0.2,5.194c0,0.799,0.699,1.498,1.498,1.498c0.2,0,0.4,0,0.499-0.1c0-2.497-0.2-4.795-0.499-6.892  C76.687,28.977,70.893,23.782,70.893,23.782z"></path></g><g id="SvgjsG1013" featurekey="VomJeJ-0" transform="matrix(2.8311427429719314,0,0,2.8311427429719314,85.69665903470025,-0.9484315769010632)" fill="#00043c"><path d="M11.32 10.56 q0 0.66 -0.2 1.25 t-0.53 1.06 t-0.78 0.82 t-0.93 0.53 q1.04 0.38 1.54 1.84 l0.6 1.7 q0.34 1 1 1.48 q-0.3 0.4 -0.9 0.67 t-1.32 0.27 t-1.12 -0.41 t-0.74 -1.43 l-0.72 -2.1 q-0.22 -0.6 -0.59 -0.92 t-1.11 -0.32 l-0.82 0 l0 5 q-0.64 0.12 -1.6 0.12 t-1.58 -0.12 l0 -13.56 l0.14 -0.14 q1.74 -0.04 2.93 -0.06 t1.87 -0.02 q1.1 0 2 0.27 t1.53 0.81 t0.98 1.36 t0.35 1.9 z M4.7 8.62 l0 3.92 q0.9 0 1.54 -0.03 t1.03 -0.24 t0.59 -0.59 t0.2 -1.1 q0 -1.94 -1.88 -1.94 l-0.83 0 t-0.65 -0.02 z M21.86 18.56 q-0.1 0.42 -0.38 0.9 t-0.58 0.7 q-1.4 -0.04 -2.16 -1.06 q-1.3 1.2 -2.82 1.2 q-0.78 0 -1.36 -0.25 t-0.98 -0.67 t-0.6 -0.97 t-0.2 -1.15 q0 -0.86 0.31 -1.51 t0.85 -1.08 t1.26 -0.65 t1.54 -0.22 q0.46 0 0.81 0.01 t0.61 0.03 l0 -0.38 q0 -1.26 -1.3 -1.26 q-0.84 0 -2.94 0.64 q-0.6 -0.7 -0.76 -2.18 q0.48 -0.18 1.07 -0.34 t1.21 -0.28 t1.22 -0.19 t1.08 -0.07 q0.7 0 1.35 0.2 t1.14 0.61 t0.78 1.06 t0.29 1.55 l0 4.06 q0 0.92 0.56 1.3 z M15.820000000000002 17.06 q0 0.94 1.08 0.94 q0.56 0 1.26 -0.58 l0 -1.6 q-0.4 -0.02 -0.67 -0.03 t-0.41 -0.01 q-1.26 0 -1.26 1.28 z M32.24 13.4 l0 4.1 q0 1.32 0.48 1.98 q-0.76 0.68 -1.82 0.68 q-1.04 0 -1.42 -0.48 t-0.38 -1.46 l0 -4.26 q0 -0.68 -0.18 -1 t-0.7 -0.32 q-0.3 0 -0.68 0.16 t-0.78 0.52 l0 6.68 q-0.34 0.06 -0.74 0.09 t-0.82 0.03 t-0.82 -0.03 t-0.74 -0.09 l0 -9.98 l0.14 -0.14 l1.18 0 q1.22 0 1.64 1.2 q1.4 -1.24 2.78 -1.24 q1.4 0 2.13 0.97 t0.73 2.59 z M38.02 9.82 q0.96 0 1.86 0.44 l0 -4.84 l0.12 -0.14 l1.22 0 q0.96 0 1.33 0.42 t0.37 1.46 l0 9.96 q0 1.06 0.56 1.44 q-0.1 0.42 -0.38 0.9 t-0.58 0.7 q-1.46 -0.04 -2.14 -1.12 q-1.2 1.26 -2.88 1.26 t-2.58 -1.4 t-0.9 -3.84 q0 -1.2 0.31 -2.17 t0.85 -1.65 t1.27 -1.05 t1.57 -0.37 z M38.42 17.78 q0.82 0 1.46 -0.78 l0 -4.38 q-0.82 -0.48 -1.3 -0.48 q-1.36 0 -1.36 3 q0 2.64 1.2 2.64 z M52.56 10.9 q1.44 1.44 1.44 4.12 q0 1.2 -0.31 2.18 t-0.9 1.67 t-1.45 1.06 t-1.98 0.37 t-1.97 -0.38 t-1.44 -1.07 t-0.89 -1.67 t-0.3 -2.16 q0 -1.2 0.3 -2.17 t0.88 -1.67 t1.44 -1.08 t1.98 -0.38 q1.98 0 3.2 1.18 z M49.38 12.059999999999999 q-0.44 0 -0.71 0.21 t-0.43 0.57 t-0.22 0.83 t-0.06 1.01 q0 0.84 0.05 1.45 t0.2 1.02 t0.42 0.61 t0.71 0.2 q0.88 0 1.16 -0.77 t0.28 -2.19 q0 -1.44 -0.28 -2.19 t-1.12 -0.75 z M54.9 18.82 q0.06 -0.66 0.41 -1.32 t0.83 -1.08 q2.14 1.3 4.06 1.3 q0.84 0 1.23 -0.38 t0.39 -0.94 q0 -0.94 -1.26 -1.48 l-2.36 -1 q-1.38 -0.62 -2.12 -1.49 t-0.74 -2.21 q0 -0.92 0.37 -1.68 t1.04 -1.32 t1.59 -0.87 t2.04 -0.31 q2.24 0 4.52 1.14 q-0.1 1.54 -1.08 2.4 q-2.04 -0.98 -3.6 -0.98 q-0.8 0 -1.2 0.36 t-0.4 0.82 q0 0.78 1.18 1.26 l2.4 1.02 q1.52 0.64 2.27 1.64 t0.75 2.32 q0 0.94 -0.34 1.72 t-1.01 1.35 t-1.67 0.89 t-2.34 0.32 q-2.6 0 -4.96 -1.48 z M72.78000000000002 10 q0.12 0.56 0.12 1.12 t-0.12 1.1 l-2.38 -0.04 l0 4.6 q0 0.94 0.88 0.94 l1.12 0 q0.26 0.72 0.26 1.32 t-0.08 0.86 q-1.48 0.2 -2.72 0.2 q-2.52 0 -2.52 -2.78 l0 -5.12 l-1.56 0.02 q-0.14 -0.5 -0.14 -1.09 t0.14 -1.13 l1.56 0.04 l0 -1.16 q0 -1.02 0.39 -1.45 t1.31 -0.43 l1.22 0 l0.14 0.14 l0 2.9 z M81.50000000000001 10.9 q1.44 1.44 1.44 4.12 q0 1.2 -0.31 2.18 t-0.9 1.67 t-1.45 1.06 t-1.98 0.37 t-1.97 -0.38 t-1.44 -1.07 t-0.89 -1.67 t-0.3 -2.16 q0 -1.2 0.3 -2.17 t0.88 -1.67 t1.44 -1.08 t1.98 -0.38 q1.98 0 3.2 1.18 z M78.32000000000001 12.059999999999999 q-0.44 0 -0.71 0.21 t-0.43 0.57 t-0.22 0.83 t-0.06 1.01 q0 0.84 0.05 1.45 t0.2 1.02 t0.42 0.61 t0.71 0.2 q0.88 0 1.16 -0.77 t0.28 -2.19 q0 -1.44 -0.28 -2.19 t-1.12 -0.75 z M84.14 11.46 q0.1 -0.4 0.38 -0.89 t0.56 -0.71 q1.84 0.14 2.56 1.82 q0.76 -1.8 2.5 -1.8 q0.52 0 1.32 0.16 q0 0.62 -0.21 1.47 t-0.57 1.45 q-0.34 -0.12 -1.02 -0.2 q-1 0 -1.64 1.02 l0 6.22 q-0.66 0.12 -1.55 0.12 t-1.57 -0.12 l0 -6.46 q0 -1.5 -0.76 -2.08 z M100.16000000000001 16.02 l-5.22 0 q0.04 0.9 0.46 1.4 t1.38 0.5 q0.48 0 1.11 -0.14 t1.45 -0.46 q0.66 0.68 0.82 1.84 q-1.6 1.14 -3.92 1.14 q-1.26 0 -2.11 -0.4 t-1.38 -1.12 t-0.75 -1.7 t-0.22 -2.14 q0 -1.12 0.27 -2.07 t0.82 -1.65 t1.4 -1.1 t1.99 -0.4 q0.96 0 1.73 0.32 t1.31 0.88 t0.83 1.34 t0.29 1.7 q0 1.22 -0.26 2.06 z M94.92 13.86 l2.64 0 l0 -0.22 q0 -0.74 -0.33 -1.22 t-0.99 -0.48 q-0.64 0 -0.95 0.45 t-0.37 1.47 z"></path></g></svg>